Coordinates
version=1
nRows=9
nColumns=24
inDegrees=yes

Units are S.I. units (second, meters, Newtons, ...)
Angles are in degrees.

endheader
time	pelvis_tilt	pelvis_list	pelvis_rotation	pelvis_tx	pelvis_ty	pelvis_tz	hip_flexion_r	hip_adduction_r	hip_rotation_r	knee_angle_r	ankle_angle_r	subtalar_angle_r	mtp_angle_r	hip_flexion_l	hip_adduction_l	hip_rotation_l	knee_angle_l	ankle_angle_l	subtalar_angle_l	mtp_angle_l	lumbar_extension	lumbar_bending	lumbar_rotation
      1.68000000	     12.36599877	     -7.11652844	      1.42919529	     -0.24390065	      0.96204052	     -0.00821994	      7.78973522	      5.66132586	    -12.78764810	    -33.25656317	     14.19393795	    -20.19103438	     20.95268748	    -17.26247387	     -3.57639852	    -11.96884730	     -9.36006358	     24.03740913	     -5.82773045	     11.76929444	    -22.96964297	      7.52672993	      1.83416656
      1.68500000	     12.67458990	     -7.40171130	      1.78535802	     -0.23822064	      0.96193406	     -0.00834826	      7.11814801	      6.05947766	    -13.48123902	    -30.80200804	     13.89752008	    -19.74761129	     21.28632080	    -17.89692828	     -4.01201843	    -11.96087790	     -9.44736788	     24.40968097	     -5.53395143	     11.62966497	    -23.23293608	      7.94998880	      1.69366023
      1.69000000	     12.98458756	     -7.65273350	      2.15361876	     -0.23250981	      0.96174994	     -0.00845114	      6.41404813	      6.44403390	    -14.20239302	    -28.28857583	     13.57500023	    -19.19082825	     21.69275923	    -18.52605434	     -4.42543303	    -11.93960874	     -9.54483281	     24.78248426	     -5.23685166	     11.48637324	    -23.48886989	      8.34063449	      1.52768213
      1.69500000	     13.29356361	     -7.87153446	      2.50935906	     -0.22675713	      0.96147942	     -0.00851897	      5.68737856	      6.81717388	    -14.92674724	    -25.73607744	     13.21000371	    -18.51753874	     22.23978178	    -19.15588767	     -4.80715710	    -11.95433421	     -9.64138825	     25.18503270	     -4.94845709	     11.30923985	    -23.73677258	      8.69539267	      1.34752659
      1.70000000	     13.56442553	     -8.03964200	      2.88152120	     -0.22098018	      0.96109491	     -0.00857841	      4.98285629	      7.15428695	    -15.70965461	    -23.15612676	     12.85107411	    -17.72291171	     22.80737693	    -19.73363125	     -5.15129988	    -11.90116285	     -9.75271302	     25.52142037	     -4.66637431	     11.14373302	    -23.93179233	      9.00153269	      1.17111516
      1.70500000	     13.80167801	     -8.19482232	      3.22349563	     -0.21517256	      0.96057345	     -0.00848922	      4.29567200	      7.52220513	    -16.42798106	    -20.52467461	     12.23273133	    -17.11217432	     24.78548195	    -20.25815570	     -5.49728233	    -11.97482593	     -9.92002953	     26.02967043	     -4.16885662	     10.50360064	    -24.08933006	      9.27623308	      0.96733314
      1.71000000	     14.01572880	     -8.23290374	      3.58107406	     -0.20939466	      0.95994745	     -0.00850966	      3.65490802	      7.74818725	    -17.28451613	    -17.99556029	     11.93433819	    -15.94404873	     25.07760626	    -20.77366664	     -5.70325777	    -11.80420901	    -10.02107439	     26.28781843	     -4.11656072	     10.44339166	    -24.21818069	      9.44406900	      0.73289343
      1.71500000	     14.22533888	     -8.26175444	      3.90951303	     -0.20353302	      0.95924437	     -0.00839079	      2.99116471	      8.00879491	    -18.09688025	    -15.42948432	     11.54219400	    -14.77837144	     25.51305752	    -21.28957344	     -5.91216041	    -11.77151073	    -10.13997369	     26.61892321	     -3.87885930	     10.38153214	    -24.33647013	      9.58427611	      0.48578440
      1.72000000	     14.40704713	     -8.25078997	      4.19910938	     -0.19768366	      0.95842695	     -0.00819258	      2.37229378	      8.24382410	    -18.89060582	    -12.92797436	     11.10622828	    -13.50791503	     26.19843493	    -21.77957527	     -6.07247426	    -11.72356019	    -10.26409332	     26.99506333	     -3.63864039	     10.27099847	    -24.42986206	      9.66706663	      0.30420372
